<svg width="16" height="15" viewBox="0 0 16 15" fill="none" xmlns="http://www.w3.org/2000/svg">
<path fill-rule="evenodd" clip-rule="evenodd" d="M2.90807 0.281233C3.50255 -0.106141 4.2573 0.116838 4.59829 0.679349L6.09839 3.154C6.44183 3.72056 6.27501 4.45423 5.71945 4.82053L4.67411 5.50974C4.58991 5.56526 4.57687 5.66658 4.62493 5.73473C5.12815 6.44827 5.99625 7.62301 6.73488 8.35409C7.47358 9.08526 8.6606 9.94459 9.38147 10.4427C9.45031 10.4902 9.55265 10.4773 9.60875 10.394L10.3057 9.35935C10.6758 8.80975 11.4169 8.64482 11.9891 8.98466L14.4893 10.4695C15.0578 10.8071 15.283 11.5543 14.8914 12.1427C14.6275 12.5391 14.2319 13.0803 13.7526 13.565C13.2825 14.0403 12.6823 14.5125 12.0024 14.6928C11.0451 14.9467 9.91269 14.6238 9.09844 14.3029C8.25306 13.9698 7.60186 13.5772 7.5466 13.5436L7.53861 13.5387L7.52684 13.5312C7.45091 13.4815 5.31871 12.0867 4.14117 10.9212C2.96364 9.75564 1.55449 7.64518 1.50447 7.57018L1.50005 7.56356L1.49185 7.55074C1.45793 7.49612 1.06127 6.85152 0.724676 6.01474C0.40048 5.20879 0.0741537 4.08786 0.330815 3.14032C0.513125 2.46727 0.99039 1.87323 1.47076 1.40803C1.96059 0.933666 2.50752 0.542245 2.90807 0.281233ZM3.5854 1.15235C3.5547 1.14466 3.52562 1.14871 3.49733 1.16715C3.12729 1.40827 2.64226 1.75743 2.22018 2.16618C1.78863 2.5841 1.47401 3.01573 1.36586 3.41499C1.20685 4.00204 1.40387 4.83582 1.72027 5.6224C2.01449 6.35383 2.36221 6.92607 2.40192 6.99053C2.49626 7.13166 3.82599 9.10918 4.89891 10.1712C5.97189 11.2332 7.9699 12.5494 8.11251 12.6428C8.17778 12.6822 8.75589 13.0263 9.4948 13.3175C10.2895 13.6306 11.1318 13.8256 11.725 13.6683C12.1284 13.5613 12.5645 13.25 12.9868 12.823C13.3999 12.4054 13.7528 11.9254 13.9965 11.5592C14.0151 11.5312 14.0192 11.5024 14.0115 11.4721C14.0032 11.4396 13.9802 11.4041 13.938 11.379L11.4378 9.89418C11.356 9.84563 11.2502 9.86919 11.1973 9.9477L10.5004 10.9824C10.1206 11.5463 9.34364 11.71 8.76811 11.3124C8.048 10.8149 6.78988 9.90853 5.97714 9.1041C5.16449 8.29974 4.24892 7.05463 3.74623 6.34185C3.34438 5.77204 3.51004 5.0028 4.08003 4.627L5.12536 3.93778C5.20473 3.88545 5.22856 3.78064 5.1795 3.6997L3.67939 1.22506C3.65406 1.18326 3.61817 1.16055 3.5854 1.15235Z" fill="white"/>
</svg>
