<svg width="14" height="14" viewBox="0 0 14 14" fill="none" xmlns="http://www.w3.org/2000/svg">
<path d="M1.375 13.75C1.375 13.75 0.25 13.75 0.25 12.625C0.25 11.5 1.375 8.125 7 8.125C12.625 8.125 13.75 11.5 13.75 12.625C13.75 13.75 12.625 13.75 12.625 13.75H1.375ZM7 7C7.89511 7 8.75355 6.64442 9.38649 6.01149C10.0194 5.37855 10.375 4.52011 10.375 3.625C10.375 2.72989 10.0194 1.87145 9.38649 1.23851C8.75355 0.605579 7.89511 0.25 7 0.25C6.10489 0.25 5.24645 0.605579 4.61351 1.23851C3.98058 1.87145 3.625 2.72989 3.625 3.625C3.625 4.52011 3.98058 5.37855 4.61351 6.01149C5.24645 6.64442 6.10489 7 7 7Z" fill="white"/>
</svg>
