<svg width="18" height="18" viewBox="0 0 18 18" fill="none" xmlns="http://www.w3.org/2000/svg">
<path fill-rule="evenodd" clip-rule="evenodd" d="M7.60054 0.909815C8.13919 -0.303275 9.86081 -0.303269 10.3995 0.909817L11.3248 2.99365C11.372 3.10016 11.4945 3.15089 11.6033 3.10902L13.7311 2.28981C14.9697 1.81291 16.1871 3.03028 15.7102 4.26895L14.891 6.39672C14.8491 6.50547 14.8998 6.62795 15.0063 6.67524L17.0902 7.60054C18.3033 8.13919 18.3033 9.86082 17.0902 10.3995L15.0063 11.3248C14.8998 11.372 14.8491 11.4945 14.891 11.6033L15.7102 13.7311C16.1871 14.9697 14.9697 16.1871 13.7311 15.7102L11.6033 14.891C11.4945 14.8491 11.372 14.8998 11.3248 15.0063L10.3995 17.0902C9.86081 18.3033 8.13919 18.3033 7.60054 17.0902L6.67524 15.0063C6.62795 14.8998 6.50547 14.8491 6.39672 14.891L4.26895 15.7102C3.03028 16.1871 1.81291 14.9697 2.28981 13.7311L3.10902 11.6033C3.15089 11.4945 3.10016 11.372 2.99365 11.3248L0.909815 10.3995C-0.303275 9.86081 -0.303269 8.13919 0.909817 7.60054L2.99365 6.67524C3.10016 6.62795 3.15089 6.50547 3.10902 6.39672L2.28981 4.26895C1.81291 3.03028 3.03028 1.81291 4.26895 2.28981L6.39672 3.10902C6.50547 3.15089 6.62795 3.10016 6.67524 2.99365L7.60054 0.909815ZM9.19992 1.44245C9.12297 1.26915 8.87703 1.26916 8.80008 1.44245L7.87478 3.52629C7.54375 4.27181 6.68639 4.62694 5.92515 4.33385L3.79738 3.51464C3.62043 3.44651 3.44651 3.62042 3.51464 3.79738L4.33385 5.92515C4.62694 6.68639 4.27181 7.54375 3.52629 7.87478L1.44245 8.80008C1.26915 8.87703 1.26916 9.12297 1.44245 9.19992L3.52629 10.1252C4.27181 10.4563 4.62694 11.3136 4.33385 12.0748L3.51464 14.2026C3.44651 14.3796 3.62042 14.5535 3.79737 14.4854L5.92515 13.6661C6.68639 13.3731 7.54375 13.7282 7.87478 14.4737L8.80008 16.5575C8.87703 16.7308 9.12297 16.7308 9.19992 16.5575L10.1252 14.4737C10.4563 13.7282 11.3136 13.3731 12.0748 13.6661L14.2026 14.4854C14.3796 14.5535 14.5535 14.3796 14.4854 14.2026L13.6661 12.0749C13.3731 11.3136 13.7282 10.4563 14.4737 10.1252L16.5575 9.19992C16.7308 9.12297 16.7308 8.87703 16.5575 8.80008L14.4737 7.87478C13.7282 7.54375 13.3731 6.68639 13.6661 5.92515L14.4854 3.79738C14.5535 3.62042 14.3796 3.44651 14.2026 3.51464L12.0749 4.33385C11.3136 4.62694 10.4563 4.27181 10.1252 3.52629L9.19992 1.44245Z" fill="white"/>
</svg>
