<svg width="17" height="18" viewBox="0 0 17 18" fill="none" xmlns="http://www.w3.org/2000/svg">
<path fill-rule="evenodd" clip-rule="evenodd" d="M16.6084 0.0843648C16.6899 0.134759 16.7571 0.205129 16.8038 0.288803C16.8504 0.372478 16.875 0.466684 16.875 0.56249V17.4375C16.875 17.5867 16.8157 17.7297 16.7102 17.8352C16.6048 17.9407 16.4617 18 16.3125 18H12.9375C12.7883 18 12.6452 17.9407 12.5398 17.8352C12.4343 17.7297 12.375 17.5867 12.375 17.4375V15.75H11.25V17.4375C11.25 17.5867 11.1907 17.7297 11.0852 17.8352C10.9798 17.9407 10.8367 18 10.6875 18H0.5625C0.413316 18 0.270242 17.9407 0.164752 17.8352C0.0592632 17.7297 0 17.5867 0 17.4375V11.25C8.96026e-05 11.132 0.0372916 11.017 0.106341 10.9213C0.17539 10.8256 0.272788 10.754 0.38475 10.7167L6.75 8.59499V5.06249C6.75 4.95811 6.77905 4.8558 6.83388 4.76699C6.88872 4.67818 6.96718 4.60637 7.0605 4.55961L16.0605 0.0596148C16.1463 0.0166464 16.2418 -0.00363701 16.3377 0.000695235C16.4336 0.00502748 16.5268 0.0338312 16.6084 0.0843648ZM6.75 9.78074L1.125 11.655V16.875H6.75V9.78074ZM7.875 16.875H10.125V15.1875C10.125 15.0383 10.1843 14.8952 10.2898 14.7897C10.3952 14.6843 10.5383 14.625 10.6875 14.625H12.9375C13.0867 14.625 13.2298 14.6843 13.3352 14.7897C13.4407 14.8952 13.5 15.0383 13.5 15.1875V16.875H15.75V1.47261L7.875 5.41011V16.875Z" fill="white"/>
</svg>
