<svg width="18" height="18" viewBox="0 0 18 18" fill="none" xmlns="http://www.w3.org/2000/svg">
<path d="M15.2953 17.6548H3.25507C3.18525 17.6548 3.11848 17.6262 3.07058 17.5756C3.02267 17.5249 2.99719 17.4569 3.00025 17.3869L3.57359 5.30591C3.58022 5.16937 3.69183 5.0625 3.82841 5.0625H14.7219C14.858 5.0625 14.9701 5.16937 14.9767 5.30591L15.5501 17.3869C15.5531 17.4569 15.5282 17.5249 15.4798 17.5756C15.4313 17.6262 15.3646 17.6548 15.2953 17.6548ZM3.52212 17.1435H15.0277L14.4788 5.57386H4.071L3.52212 17.1435Z" fill="white"/>
<path d="M12.1691 6.37926C12.0185 6.37926 11.8964 6.26472 11.8964 6.12358V3.5821C11.8964 2.19938 10.6964 1.07386 9.22091 1.07386C7.74545 1.07386 6.54545 2.19938 6.54545 3.5821V6.12358C6.54545 6.26472 6.42327 6.37926 6.27273 6.37926C6.12218 6.37926 6 6.26472 6 6.12358V3.5821C6 1.9171 7.44491 0.5625 9.22091 0.5625C10.9969 0.5625 12.4418 1.9171 12.4418 3.5821V6.12358C12.4418 6.26472 12.3202 6.37926 12.1691 6.37926Z" fill="white"/>
</svg>
